<?xml version="1.0" encoding="iso-8859-1"?>
<!-- Generator: Adobe Illustrator 19.0.0, SVG Export Plug-In . SVG Version: 6.00 Build 0)  -->
<svg version="1.1" id="Layer_1" xmlns="http://www.w3.org/2000/svg" xmlns:xlink="http://www.w3.org/1999/xlink" x="0px" y="0px"
	 viewBox="0 0 349.441 349.441" style="enable-background:new 0 0 349.441 349.441;" xml:space="preserve">
<g>
	<path style="fill:#C3C6C8;" d="M349.441,81.137c0-13.75-11.25-25-25-25H25c-13.75,0-25,11.25-25,25v187.168c0,13.75,11.25,25,25,25
		h299.441c13.75,0,25-11.25,25-25V81.137z"/>
	<path style="fill:#E8E8E8;" d="M174.721,149.433L0,261.205v7.1c0,13.75,11.25,25,25,25h299.441c13.75,0,25-11.25,25-25v-7.1
		L174.721,149.433z"/>
	<path style="fill:#E8E8E8;" d="M174.721,200.009l174.72-111.773v-7.1c0-13.75-11.25-25-25-25H25c-13.75,0-25,11.25-25,25v7.1
		L174.721,200.009z"/>
	<path style="fill:#005CB9;" d="M348.099,73.095L174.721,184.009L1.343,73.095C0.477,75.623,0,78.326,0,81.137v7.1l174.721,111.772
		l174.72-111.773v-7.1C349.441,78.326,348.965,75.623,348.099,73.095z"/>
</g>
<g>
</g>
<g>
</g>
<g>
</g>
<g>
</g>
<g>
</g>
<g>
</g>
<g>
</g>
<g>
</g>
<g>
</g>
<g>
</g>
<g>
</g>
<g>
</g>
<g>
</g>
<g>
</g>
<g>
</g>
</svg>
