<?xml version="1.0" encoding="iso-8859-1"?>
<!-- Generator: Adobe Illustrator 19.0.0, SVG Export Plug-In . SVG Version: 6.00 Build 0)  -->
<svg version="1.1" id="Layer_1" xmlns="http://www.w3.org/2000/svg" xmlns:xlink="http://www.w3.org/1999/xlink" x="0px" y="0px"
	 viewBox="0 0 512 512" style="enable-background:new 0 0 512 512;" xml:space="preserve">
<path style="fill:#81A4E3;" d="M326.621,269.241c-58.409,0-105.931,47.522-105.931,105.931s47.522,105.931,105.931,105.931
	s105.931-47.522,105.931-105.931S385.03,269.241,326.621,269.241z M326.621,304.552c-38.94,0-70.621,31.681-70.621,70.621
	c0,4.875-3.953,8.828-8.828,8.828s-8.828-3.953-8.828-8.828c0-48.677,39.599-88.276,88.276-88.276c4.875,0,8.828,3.953,8.828,8.828
	C335.448,300.599,331.496,304.552,326.621,304.552z"/>
<path style="fill:#F58CAC;" d="M229.517,136.828c0-58.409-47.522-105.931-105.931-105.931S17.655,78.418,17.655,136.828
	s47.522,105.931,105.931,105.931S229.517,195.237,229.517,136.828z M114.759,57.379c0-4.875,3.953-8.828,8.828-8.828
	c48.677,0,88.276,39.599,88.276,88.276c0,4.875-3.953,8.828-8.828,8.828s-8.828-3.953-8.828-8.828
	c0-38.94-31.681-70.621-70.621-70.621C118.711,66.207,114.759,62.254,114.759,57.379z"/>
<g>
	<path style="fill:#314E55;" d="M326.621,286.897c-48.677,0-88.276,39.599-88.276,88.276c0,4.875,3.953,8.828,8.828,8.828
		s8.828-3.953,8.828-8.828c0-38.94,31.681-70.621,70.621-70.621c4.875,0,8.828-3.953,8.828-8.828
		C335.448,290.849,331.496,286.897,326.621,286.897z"/>
	<path style="fill:#314E55;" d="M194.207,136.828c0,4.875,3.953,8.828,8.828,8.828s8.828-3.953,8.828-8.828
		c0-48.677-39.599-88.276-88.276-88.276c-4.875,0-8.828,3.953-8.828,8.828s3.953,8.828,8.828,8.828
		C162.526,66.207,194.207,97.888,194.207,136.828z"/>
	<path style="fill:#314E55;" d="M511.318,204.075c-0.895-2.158-2.615-3.878-4.773-4.774c-1.079-0.446-2.224-0.681-3.373-0.681
		h-88.276c-4.875,0-8.828,3.953-8.828,8.828s3.953,8.828,8.828,8.828h66.966l-68.793,68.793c-0.357,0.357-0.52,0.81-0.802,1.208
		c-22.236-21.43-52.398-34.691-85.646-34.691c-68.147,0-123.586,55.44-123.586,123.586s55.44,123.586,123.586,123.586
		s123.586-55.44,123.586-123.586c0-28.817-9.992-55.296-26.587-76.337c0.668-0.382,1.361-0.712,1.932-1.283l68.793-68.793v66.966
		c0,4.875,3.953,8.828,8.828,8.828c4.875,0,8.828-3.953,8.828-8.828v-88.276C512,206.298,511.765,205.154,511.318,204.075z
		 M326.621,481.103c-58.409,0-105.931-47.522-105.931-105.931s47.522-105.931,105.931-105.931s105.931,47.522,105.931,105.931
		S385.03,481.103,326.621,481.103z"/>
	<path style="fill:#314E55;" d="M163.797,322.207h-31.384v-62.24c64.026-4.557,114.759-57.972,114.759-123.139
		c0-68.147-55.44-123.586-123.586-123.586S0,68.681,0,136.828c0,65.167,50.733,118.582,114.759,123.139v62.24H83.862
		c-4.875,0-8.828,3.953-8.828,8.828s3.953,8.828,8.828,8.828h30.897v26.483c0,4.875,3.953,8.828,8.828,8.828
		c4.875,0,8.828-3.953,8.828-8.828v-26.483h31.384c4.875,0,8.828-3.953,8.828-8.828S168.672,322.207,163.797,322.207z
		 M17.655,136.828c0-58.409,47.522-105.931,105.931-105.931s105.931,47.522,105.931,105.931s-47.522,105.931-105.931,105.931
		S17.655,195.237,17.655,136.828z"/>
</g>
<g>
</g>
<g>
</g>
<g>
</g>
<g>
</g>
<g>
</g>
<g>
</g>
<g>
</g>
<g>
</g>
<g>
</g>
<g>
</g>
<g>
</g>
<g>
</g>
<g>
</g>
<g>
</g>
<g>
</g>
</svg>
