<?xml version="1.0" encoding="iso-8859-1"?>
<!-- Generator: Adobe Illustrator 19.0.0, SVG Export Plug-In . SVG Version: 6.00 Build 0)  -->
<svg version="1.1" id="Layer_1" xmlns="http://www.w3.org/2000/svg" xmlns:xlink="http://www.w3.org/1999/xlink" x="0px" y="0px"
	 viewBox="0 0 511.998 511.998" style="enable-background:new 0 0 511.998 511.998;" xml:space="preserve">
<path style="fill:#FFC72D;" d="M480.787,56.395L430.673,6.282c-8.376-8.376-21.958-8.376-30.335,0
	c-8.377,8.377-8.377,21.959,0,30.337l34.947,34.945l-12.46,12.46l-14.177-14.177c-8.376-8.376-21.958-8.376-30.335,0
	c-8.377,8.377-8.377,21.958,0,30.335l14.177,14.176l-12.46,12.46L345.083,91.87c-8.376-8.377-21.958-8.377-30.335,0
	c-8.377,8.376-8.377,21.958,0,30.335l34.947,34.947L243.729,263.118c-53.793-39.18-129.789-34.527-178.295,13.978
	c-87.011,87.01-24.253,234.901,97.326,234.901c114.662,0,176.225-130.964,111.372-218.612l163.861-163.859l0,0
	c0-0.001,0-0.001,0-0.001l42.795-42.793C489.158,78.361,489.164,64.773,480.787,56.395z M162.727,418.809
	c-24.513,0-44.384-19.872-44.384-44.385s19.872-44.385,44.384-44.385s44.385,19.872,44.385,44.385S187.239,418.809,162.727,418.809z
	"/>
<path style="fill:#F59D00;" d="M480.787,56.395L430.673,6.282c-8.376-8.376-21.958-8.376-30.335,0
	c-8.377,8.377-8.377,21.959,0,30.337l34.947,34.945l-12.46,12.46l-14.177-14.177c-8.376-8.376-21.958-8.376-30.335,0
	c-8.377,8.377-8.377,21.958,0,30.335l14.177,14.176l-12.46,12.46L345.083,91.87c-8.376-8.377-21.958-8.377-30.335,0
	c-8.377,8.376-8.377,21.958,0,30.335l34.947,34.947l-104.42,104.42v223.224c56.776-43.041,75.468-128.413,28.856-191.41
	l163.861-163.859l0,0c0-0.001,0-0.001,0-0.001l42.795-42.793C489.158,78.361,489.164,64.773,480.787,56.395z"/>
<g>
</g>
<g>
</g>
<g>
</g>
<g>
</g>
<g>
</g>
<g>
</g>
<g>
</g>
<g>
</g>
<g>
</g>
<g>
</g>
<g>
</g>
<g>
</g>
<g>
</g>
<g>
</g>
<g>
</g>
</svg>
