<?xml version="1.0" encoding="iso-8859-1"?>
<!-- Generator: Adobe Illustrator 19.0.0, SVG Export Plug-In . SVG Version: 6.00 Build 0)  -->
<svg version="1.1" id="Layer_1" xmlns="http://www.w3.org/2000/svg" xmlns:xlink="http://www.w3.org/1999/xlink" x="0px" y="0px"
	 viewBox="0 0 128 128" style="enable-background:new 0 0 128 128;" xml:space="preserve">
<g>
	<circle style="fill:#FCCC66;" cx="64" cy="64" r="64"/>
	<g>
		<path style="fill:#FFFEFF;" d="M86.216,97.252c0,2.99-2.424,5.415-5.415,5.415h-34.17c-2.99,0-5.415-2.424-5.415-5.415V34.081
			c0-2.99,2.424-5.415,5.415-5.415h34.171c2.99,0,5.415,2.424,5.415,5.415v63.171H86.216z"/>
		<polygon style="fill:#486380;" points="82.216,88.667 82.216,88.667 46.216,88.667 46.216,88.667 46.216,38.667 46.216,38.667 
			82.216,38.667 82.216,38.667 		"/>
		<path style="fill:#34495E;" d="M67.216,95.667c0,2.209-1.791,4-4,4l0,0c-2.209,0-4-1.791-4-4l0,0c0-2.209,1.791-4,4-4l0,0
			C65.425,91.667,67.216,93.458,67.216,95.667L67.216,95.667z"/>
		<path style="fill:#34495E;" d="M73.216,35.313c0,0.748-0.606,1.354-1.354,1.354H56.57c-0.748,0-1.354-0.606-1.354-1.354V35.02
			c0-0.748,0.606-1.354,1.354-1.354h15.293c0.748,0,1.354,0.606,1.354,1.354L73.216,35.313L73.216,35.313z"/>
		<polygon style="fill:#49708B;" points="46.248,88.667 82.248,88.667 82.248,38.667 82.209,38.667 46.248,88.75 		"/>
	</g>
</g>
<g>
</g>
<g>
</g>
<g>
</g>
<g>
</g>
<g>
</g>
<g>
</g>
<g>
</g>
<g>
</g>
<g>
</g>
<g>
</g>
<g>
</g>
<g>
</g>
<g>
</g>
<g>
</g>
<g>
</g>
</svg>
